<svg width="25" height="24" viewBox="0 0 25 24" fill="none" xmlns="http://www.w3.org/2000/svg">
<path d="M12.3335 0.000244141C5.70638 0.000244141 0.333496 5.37313 0.333496 12.0002C0.333496 18.6274 5.70638 24.0002 12.3335 24.0002C18.9606 24.0002 24.3335 18.6274 24.3335 12.0002C24.3335 5.37313 18.9606 0.000244141 12.3335 0.000244141ZM17.872 13.8464H12.3335C12.0887 13.8464 11.8539 13.7491 11.6808 13.576C11.5077 13.4029 11.4104 13.1681 11.4104 12.9233V4.61563C11.4104 4.37081 11.5077 4.13603 11.6808 3.96291C11.8539 3.7898 12.0887 3.69255 12.3335 3.69255C12.5783 3.69255 12.8131 3.7898 12.9862 3.96291C13.1593 4.13603 13.2566 4.37081 13.2566 4.61563V12.0002H17.872C18.1168 12.0002 18.3516 12.0975 18.5247 12.2706C18.6978 12.4437 18.795 12.6785 18.795 12.9233C18.795 13.1681 18.6978 13.4029 18.5247 13.576C18.3516 13.7491 18.1168 13.8464 17.872 13.8464Z" fill="white"/>
</svg>
