<svg width="14" height="15" viewBox="0 0 14 15" fill="none" xmlns="http://www.w3.org/2000/svg">
<path d="M7.71974 0.500861C8.23054 0.498901 8.74133 0.504035 9.25199 0.516261L9.38778 0.521161C9.54458 0.52676 9.69927 0.53376 9.88617 0.54216C10.6309 0.577159 11.1391 0.694755 11.585 0.867649C12.047 1.04544 12.4362 1.28623 12.8254 1.67542C13.1812 2.02513 13.4566 2.44816 13.6324 2.91508C13.8053 3.36096 13.9229 3.86985 13.9579 4.61462C13.9663 4.80081 13.9733 4.95621 13.9789 5.113L13.9831 5.2488C13.9956 5.75922 14.0009 6.26978 13.9992 6.78035L13.9999 7.30253V8.2195C14.0017 8.7303 13.9963 9.2411 13.9838 9.75175L13.9796 9.88754C13.974 10.0443 13.967 10.199 13.9586 10.3859C13.9236 11.1307 13.8046 11.6389 13.6324 12.0848C13.4572 12.5522 13.1817 12.9756 12.8254 13.3251C12.4754 13.6809 12.0521 13.9563 11.585 14.1322C11.1391 14.3051 10.6309 14.4227 9.88617 14.4577C9.69927 14.4661 9.54458 14.4731 9.38778 14.4787L9.25199 14.4829C8.74134 14.4953 8.23054 14.5007 7.71974 14.499L7.19756 14.4997H6.28129C5.77049 14.5014 5.25969 14.496 4.74904 14.4836L4.61325 14.4794C4.44708 14.4734 4.28095 14.4664 4.11486 14.4584C3.37009 14.4234 2.86191 14.3044 2.41532 14.1322C1.94822 13.9567 1.52512 13.6813 1.17566 13.3251C0.819408 12.9753 0.543742 12.552 0.367891 12.0848C0.194997 11.6389 0.0774012 11.1307 0.0424024 10.3859C0.0346067 10.2198 0.0276069 10.0537 0.0214032 9.88754L0.0179034 9.75175C0.00499831 9.2411 -0.000835454 8.7303 0.000403887 8.2195V6.78035C-0.00154972 6.26978 0.00358398 5.75922 0.0158034 5.2488L0.0207032 5.113C0.026303 4.95621 0.0333028 4.80081 0.0417025 4.61462C0.0767013 3.86915 0.194297 3.36166 0.367191 2.91508C0.543146 2.44793 0.819351 2.02502 1.17636 1.67612C1.52558 1.31966 1.94841 1.04374 2.41532 0.867649C2.86191 0.694755 3.36939 0.577159 4.11486 0.54216L4.61325 0.521161L4.74904 0.517661C5.25945 0.504762 5.77002 0.498928 6.28059 0.500161L7.71974 0.500861ZM7.00017 4.00074C6.53644 3.99418 6.07603 4.07986 5.6457 4.25278C5.21536 4.42571 4.82369 4.68243 4.49344 5.00805C4.16319 5.33366 3.90095 5.72166 3.72196 6.1495C3.54296 6.57735 3.45079 7.0365 3.45079 7.50027C3.45079 7.96405 3.54296 8.4232 3.72196 8.85104C3.90095 9.27889 4.16319 9.66689 4.49344 9.9925C4.82369 10.3181 5.21536 10.5748 5.6457 10.7478C6.07603 10.9207 6.53644 11.0064 7.00017 10.9998C7.92839 10.9998 8.8186 10.6311 9.47495 9.97471C10.1313 9.31836 10.5 8.42815 10.5 7.49992C10.5 6.5717 10.1313 5.68149 9.47495 5.02513C8.8186 4.36878 7.92839 4.00074 7.00017 4.00074ZM7.00017 5.40069C7.27911 5.39555 7.55628 5.44605 7.81549 5.54923C8.07471 5.65242 8.31076 5.80622 8.50986 6.00166C8.70896 6.19709 8.86712 6.43024 8.97511 6.68749C9.08309 6.94474 9.13873 7.22092 9.13878 7.49992C9.13883 7.77891 9.08328 8.05511 8.97538 8.3124C8.86748 8.56968 8.7094 8.80289 8.51036 8.99839C8.31132 9.19389 8.07532 9.34777 7.81614 9.45104C7.55697 9.55431 7.27981 9.6049 7.00087 9.59985C6.44393 9.59985 5.9098 9.37861 5.51599 8.9848C5.12218 8.59098 4.90094 8.05686 4.90094 7.49992C4.90094 6.94299 5.12218 6.40886 5.51599 6.01505C5.9098 5.62124 6.44393 5.39999 7.00087 5.39999L7.00017 5.40069ZM10.675 2.95078C10.4492 2.95982 10.2357 3.05588 10.0791 3.21885C9.92251 3.38182 9.83506 3.59905 9.83506 3.82505C9.83506 4.05105 9.92251 4.26828 10.0791 4.43125C10.2357 4.59422 10.4492 4.69028 10.675 4.69932C10.9071 4.69932 11.1297 4.60713 11.2937 4.44305C11.4578 4.27896 11.55 4.0564 11.55 3.82435C11.55 3.59229 11.4578 3.36974 11.2937 3.20565C11.1297 3.04156 10.9071 2.94938 10.675 2.94938V2.95078Z" fill="white"/>
</svg>
