<svg width="31" height="24" viewBox="0 0 31 24" fill="none" xmlns="http://www.w3.org/2000/svg">
<path d="M30.6665 5.30273V19.5001C30.6665 20.6479 30.228 21.7523 29.4405 22.5875C28.6531 23.4226 27.5763 23.9252 26.4305 23.9926L26.1665 24.0001H5.1667C4.0189 24.0001 2.91445 23.5616 2.07934 22.7741C1.24423 21.9867 0.741586 20.9099 0.674248 19.7641L0.666748 19.5001V5.30273L14.8341 14.7481L15.0081 14.8471C15.2132 14.9473 15.4384 14.9994 15.6666 14.9994C15.8948 14.9994 16.12 14.9473 16.3251 14.8471L16.4991 14.7481L30.6665 5.30273Z" fill="white"/>
<path d="M26.1662 0C27.7862 0 29.2067 0.854992 29.9987 2.14048L15.6663 11.6954L1.33398 2.14048C1.71008 1.52964 2.2268 1.01759 2.84103 0.647068C3.45527 0.276543 4.14921 0.0582838 4.86495 0.0104999L5.16645 0H26.1662Z" fill="white"/>
</svg>
