<svg width="20" height="25" viewBox="0 0 20 25" fill="none" xmlns="http://www.w3.org/2000/svg">
<path d="M9.82857 0.480469C7.3288 0.483305 4.93223 1.47759 3.16463 3.24519C1.39702 5.0128 0.402738 7.40937 0.399902 9.90913C0.399902 17.9771 8.97142 24.0703 9.33678 24.3254C9.4809 24.4263 9.6526 24.4805 9.82857 24.4805C10.0045 24.4805 10.1762 24.4263 10.3204 24.3254C10.6857 24.0703 19.2572 17.9771 19.2572 9.90913C19.2544 7.40937 18.2601 5.0128 16.4925 3.24519C14.7249 1.47759 12.3283 0.483305 9.82857 0.480469ZM9.82857 6.48053C10.5067 6.48053 11.1696 6.68161 11.7334 7.05835C12.2972 7.43509 12.7367 7.97057 12.9962 8.59706C13.2557 9.22356 13.3236 9.91294 13.1913 10.578C13.059 11.2431 12.7325 11.854 12.253 12.3335C11.7735 12.813 11.1625 13.1396 10.4975 13.2719C9.83237 13.4042 9.14299 13.3363 8.5165 13.0768C7.89 12.8173 7.35453 12.3778 6.97779 11.814C6.60105 11.2501 6.39996 10.5872 6.39996 9.90913C6.39996 8.99981 6.76119 8.12773 7.40418 7.48474C8.04717 6.84176 8.91925 6.48053 9.82857 6.48053Z" fill="white"/>
</svg>
