<svg width="16" height="17" viewBox="0 0 16 17" fill="none" xmlns="http://www.w3.org/2000/svg">
<path d="M15.0667 16.5C13.1556 16.5 11.2927 16.0739 9.47822 15.2218C7.6637 14.3696 6.0563 13.2437 4.656 11.844C3.2557 10.4443 2.12978 8.83689 1.27822 7.02178C0.426667 5.20667 0.000592593 3.34385 0 1.43333C0 1.16667 0.0888888 0.944444 0.266667 0.766667C0.444444 0.588889 0.666667 0.5 0.933334 0.5H4.53333C4.74074 0.5 4.92593 0.566667 5.08889 0.7C5.25185 0.833333 5.34815 1.0037 5.37778 1.21111L5.95556 4.32222C5.98519 4.52963 5.98133 4.71867 5.944 4.88933C5.90667 5.06 5.82163 5.2117 5.68889 5.34444L3.55556 7.52222C4.17778 8.58889 4.95556 9.58889 5.88889 10.5222C6.82222 11.4556 7.85185 12.263 8.97778 12.9444L11.0667 10.8556C11.2 10.7222 11.3742 10.6224 11.5893 10.556C11.8044 10.4896 12.0154 10.471 12.2222 10.5L15.2889 11.1222C15.4963 11.1667 15.6667 11.2668 15.8 11.4227C15.9333 11.5785 16 11.7599 16 11.9667V15.5667C16 15.8333 15.9111 16.0556 15.7333 16.2333C15.5556 16.4111 15.3333 16.5 15.0667 16.5Z" fill="#3167D9"/>
</svg>
