<svg width="29" height="32" viewBox="0 0 29 32" fill="none" xmlns="http://www.w3.org/2000/svg">
<path d="M27.5397 5.8194C27.093 4.12979 25.7851 2.51662 23.8574 1.27754C21.483 -0.249886 18.1251 -0.419721 15.0959 0.833017L14.9894 0.878343C14.9375 0.900733 14.8867 0.923123 14.8365 0.940598C14.5826 1.02907 14.3876 1.10443 14.2287 1.16613C13.7247 1.36164 13.7241 1.36109 12.8951 1.11699C10.5278 0.419625 7.51393 -0.276645 5.20286 0.542496C2.07374 1.65107 -0.700414 5.32136 0.158046 11.0215C0.259619 11.6954 0.358462 12.3753 0.457305 13.0579C1.17378 17.982 1.91428 23.0738 3.81851 27.6713L3.8835 27.8292C4.35641 28.9803 5.1477 30.9075 6.52495 30.9075H6.63581L6.73793 30.8643C8.00214 30.3292 8.47505 29.1158 8.82018 28.23L7.80281 27.833C7.45331 28.7297 7.1262 29.45 6.43102 29.8033C5.81175 29.6487 5.15043 28.0389 4.89377 27.4141L4.82769 27.253C2.97589 22.7822 2.24467 17.7586 1.53802 12.9011C1.43809 12.2163 1.33925 11.5354 1.23767 10.8598C0.686118 7.19555 1.81107 2.90326 5.56765 1.57188C7.58492 0.857046 10.4901 1.55058 12.5249 2.14637C16.0335 4.13962 16.033 5.00135 16.0193 8.56461L16.0177 9.28546C16.0177 9.58745 16.2623 9.83155 16.5638 9.83155C16.8652 9.83155 17.1099 9.58745 17.1099 9.28546L17.1115 8.56843C17.123 5.44478 17.1186 3.97415 14.6235 2.18405C14.7732 2.12617 14.9555 2.05572 15.1953 1.97217C15.2717 1.94541 15.3471 1.91374 15.423 1.88043L15.5126 1.8422C18.2168 0.724345 21.1881 0.85923 23.2665 2.19552C24.9644 3.28716 26.1068 4.67315 26.4836 6.09845C27.6211 10.3973 26.3907 15.5093 25.3046 20.02C25.1052 20.8495 24.9097 21.661 24.7339 22.4469L24.5761 23.1601C24.1501 25.1003 23.7094 27.1061 22.7221 28.8356C22.3901 29.4177 22.0493 29.7405 21.8227 29.7274C21.5726 29.7017 20.8818 29.3063 19.8737 26.2018L18.835 26.5387C19.4958 28.5746 20.3548 30.6743 21.7113 30.8136C22.4256 30.8884 23.0852 30.4034 23.6712 29.3773C24.7405 27.5026 25.1997 25.4143 25.6431 23.3949L25.7999 22.6861C25.9752 21.9051 26.169 21.0996 26.3673 20.2756C27.4829 15.6398 28.7477 10.3847 27.5397 5.8194Z" fill="white"/>
<path d="M12.3506 11.2482L10.3923 13.2065V15.6169H18.0376V13.2065L16.0794 11.2482H12.3506Z" fill="white"/>
<path d="M15.8533 18.1655C15.6245 18.1655 15.4115 18.0208 15.335 17.7919C15.2395 17.5058 15.394 17.1962 15.6802 17.1011L16.8575 16.7085H10.3923V18.6925L13.5034 17.7046C13.7901 17.6123 14.0976 17.7717 14.1893 18.0595C14.2805 18.3468 14.1216 18.6542 13.8344 18.7454L10.3923 19.8382V21.969L13.5034 20.9811C13.7901 20.8888 14.0976 21.0483 14.1893 21.3361C14.2805 21.6233 14.1216 21.9308 13.8344 22.022L10.3923 23.1147V25.2456L13.5034 24.2577C13.7901 24.1654 14.0976 24.3249 14.1893 24.6127C14.2805 24.8999 14.1216 25.2074 13.8344 25.2985L10.3923 26.3913V27.6298H11.4845V29.45L13.3958 31.9986H15.0341L16.9455 29.45V27.6298H18.0376V24.0185L16.0258 24.6891C15.9685 24.7082 15.9101 24.7175 15.8533 24.7175C15.6245 24.7175 15.4115 24.5728 15.335 24.344C15.2395 24.0578 15.394 23.7482 15.6802 23.6532L18.0371 22.8673V20.7419L16.0253 21.4125C15.9679 21.4317 15.9095 21.4409 15.8527 21.4409C15.6239 21.4409 15.4109 21.2962 15.3345 21.0674C15.2389 20.7813 15.3935 20.4716 15.6796 20.3766L18.0366 19.5908V17.4654L16.0247 18.136C15.969 18.1567 15.9106 18.1655 15.8533 18.1655Z" fill="white"/>
</svg>
