<svg width="28" height="32" viewBox="0 0 28 32" fill="none" xmlns="http://www.w3.org/2000/svg">
<path d="M27.3288 7.11878L27.3253 6.90674C27.243 4.71175 26.4391 3.16133 24.7941 2.02516C23.4206 1.09716 21.4749 0.586914 19.3147 0.586914H19.2388C17.4904 0.586914 15.6576 0.942079 14.3375 1.53601L13.9999 1.68652L13.6662 1.53742C12.6541 1.07676 11.2472 0.745507 9.77169 0.62665L7.27041 0.663222C5.66267 0.844672 4.25819 1.31553 3.20606 2.02867C1.5614 3.16133 0.757532 4.70999 0.675598 6.91061L0.674894 6.95456C0.671378 7.12546 0.668213 7.28441 0.668213 7.43175C0.69318 10.6173 1.41722 11.9234 2.2552 13.4358L2.39656 13.6914C3.38786 15.4057 4.35314 17.3837 4.32571 21.0279C4.325 25.894 5.20764 28.3988 5.94821 29.6447C6.79744 31.0576 7.15999 31.4131 8.27718 31.4131C9.3374 31.4131 9.89652 30.4749 9.9672 29.6088C10.0235 29.0388 10.0333 28.3685 10.0453 27.6572C10.0716 25.9749 10.1047 23.879 10.7443 21.7182L10.7602 21.6679C11.0162 20.8327 11.3348 19.7943 11.9431 18.874C12.3419 18.2738 13.1974 17.6281 14.1374 17.6281C14.8875 17.6281 15.5503 18.0561 16.0514 18.8652C16.6302 19.7985 16.9717 20.7877 17.2537 21.715C17.9018 23.8924 18.1708 26.3223 17.9915 28.3791C17.893 29.5082 18.0875 30.349 18.5706 30.8758C19.0387 31.3867 19.6108 31.4128 19.7209 31.4128H19.7219C20.7403 31.4128 21.1964 31.066 22.0481 29.6436C22.7894 28.4005 23.6741 25.895 23.673 21.0254C23.6481 17.3883 24.6141 15.4064 25.6085 13.6827L25.7344 13.4555C26.6097 11.8773 27.3014 10.6314 27.3309 7.42718C27.3327 7.32977 27.3309 7.22603 27.3288 7.11878Z" fill="white"/>
<path d="M22.7469 14.8874L22.665 14.886C21.3621 14.886 21.0688 16.1793 20.8554 17.1231C20.7731 17.4864 20.6602 17.9829 20.5319 18.0729C20.5115 18.086 20.4999 18.0916 20.4995 18.0933C20.4345 18.0765 20.284 17.9158 20.1834 17.8092C19.8493 17.4547 19.3753 16.9487 18.5503 17.0866C17.4662 17.268 16.8065 18.5702 16.509 19.3304L16.4524 19.4767L16.5203 19.6174C16.8754 20.3442 17.1188 21.088 17.3101 21.715C17.9585 23.8927 18.2268 26.3223 18.0478 28.3791C17.9497 29.5082 18.1438 30.349 18.627 30.8758C19.095 31.3867 19.6672 31.4127 19.7772 31.4127H19.7786C20.7963 31.4127 21.2524 31.066 22.1041 29.6436C22.8461 28.4005 23.7305 25.895 23.7298 21.0254C23.7143 18.8462 24.0483 17.0549 24.7812 15.3881L25.002 14.8853L22.7469 14.8874Z" fill="white"/>
<path d="M11.742 14.8908C10.6438 14.7354 9.72037 15.5143 9.06561 16.0706C8.88099 16.2282 8.38341 16.5949 7.77013 16.5956C7.3573 16.5956 6.97084 16.4244 6.62024 16.0857C6.36037 15.8333 6.05901 15.706 5.72565 15.706C5.18306 15.706 4.60143 16.0474 3.9973 16.7198L3.86719 16.8639L3.91818 17.0521C4.24134 18.2515 4.3929 19.5516 4.38165 21.0282C4.38095 25.8943 5.26358 28.3991 6.00415 29.645C6.85339 31.0582 7.21558 31.4134 8.33312 31.4134C9.39334 31.4134 9.95211 30.4752 10.0238 29.6091C10.0794 29.0391 10.0903 28.3688 10.1019 27.6574C10.1286 25.9752 10.161 23.8797 10.8006 21.7184L10.8161 21.6675C11.0725 20.833 11.3914 19.7946 11.9998 18.8743C12.35 18.3475 12.9485 17.9073 13.5635 17.7251L13.9697 17.6045L13.7837 17.224C13.0719 15.7679 12.3845 14.9826 11.742 14.8908Z" fill="white"/>
<path d="M27.7761 7.09732L27.7729 6.88985C27.684 4.54084 26.8189 2.87859 25.0441 1.65415C23.5978 0.677275 21.5642 0.13855 19.3186 0.13855L19.2813 0.139253L19.2352 0.13855C17.4295 0.13855 15.5292 0.509187 14.1567 1.12668L14.001 1.19596L13.8522 1.12985C12.7804 0.641759 11.3569 0.304528 9.84272 0.181451C9.8167 0.179341 9.79068 0.178638 9.76606 0.179341L7.29995 0.213099C7.27323 0.213099 7.24685 0.215561 7.22013 0.218374C5.54136 0.407912 4.0669 0.905495 2.95217 1.66013C1.18057 2.8793 0.31516 4.54048 0.227599 6.9018L0.226896 6.94576C0.22338 7.12053 0.220215 7.28158 0.220215 7.43561C0.245885 10.7344 0.995248 12.0876 1.86312 13.6538L2.0087 13.9168C2.9687 15.5784 3.90443 17.4952 3.87736 21.0289C3.87665 25.9967 4.79305 28.5802 5.56421 29.8771C6.41169 31.2879 6.8945 31.8622 8.27683 31.8622C9.56105 31.8622 10.3238 30.745 10.4124 29.6545C10.4701 29.0658 10.481 28.3868 10.4926 27.6677C10.5193 26.0111 10.5513 23.9501 11.173 21.8518L11.186 21.8099C11.4469 20.9582 11.7427 19.9926 12.3169 19.1244C12.6619 18.6043 13.3979 18.0782 14.1385 18.0782C14.7334 18.0782 15.2497 18.4225 15.672 19.1036C16.2241 19.994 16.5529 20.9498 16.8243 21.8455C17.4485 23.9416 17.7186 26.3701 17.5459 28.3422C17.4359 29.6018 17.6701 30.5572 18.2415 31.1807C18.821 31.8129 19.5215 31.8622 19.7216 31.8622H19.7233C21.0336 31.8622 21.5952 31.2763 22.4338 29.875C23.2047 28.583 24.1239 25.9991 24.1228 21.0233C24.0985 17.4994 25.0343 15.5794 26.0027 13.9L26.1286 13.6728C26.9982 12.1048 27.7494 10.7495 27.7792 7.42892C27.7796 7.32273 27.7778 7.21196 27.7761 7.09732ZM10.9729 18.2326C10.2693 19.2956 9.9236 20.4269 9.64509 21.3356L9.62997 21.3851C8.94391 23.7029 8.90874 25.8862 8.88131 27.6406C8.87006 28.3559 8.85951 28.9734 8.80782 29.5089C8.80712 29.5163 8.73503 30.2488 8.27789 30.2488C7.75147 30.2488 7.67024 30.2488 6.94936 29.0483C6.40465 28.1326 5.49037 25.8722 5.49107 21.0338C5.50162 19.6192 5.36589 18.4288 5.14224 17.3989C5.32123 17.1239 5.55683 16.8689 5.65564 16.8471C5.65564 16.8471 5.69081 16.8591 5.75586 16.9227C7.06646 18.1904 8.71428 17.8532 9.76536 16.9572C10.2872 16.5131 10.9353 15.9567 11.5078 16.0408C11.6797 16.1027 11.9698 16.5366 12.2111 17.0493C11.6864 17.3774 11.256 17.8054 10.9729 18.2326ZM21.0501 29.0469C20.3331 30.2446 20.1784 30.2488 19.7279 30.2488C19.7015 30.2467 19.551 30.2291 19.4192 30.0775C19.2806 29.9189 19.0629 29.4994 19.1516 28.4814C19.3443 26.2857 19.0587 23.699 18.3681 21.3806C18.1638 20.7061 17.9268 20.0004 17.598 19.2921C17.8325 18.8642 18.2454 18.31 18.6874 18.2358C18.8614 18.2069 18.9606 18.2706 19.281 18.6092C19.5486 18.8927 20.2568 19.6431 21.1405 19.0295C21.6409 18.6827 21.7836 18.0501 21.9356 17.3806C22.1972 16.2219 22.3533 16.0461 22.6406 16.051L23.2226 16.0767C22.7915 17.3806 22.4964 18.969 22.5109 21.0286C22.5112 25.8739 21.5955 28.1326 21.0501 29.0469ZM24.7181 12.8904L24.5982 13.107C24.3507 13.5356 24.0996 13.9914 23.8612 14.49L22.7106 14.4394C20.9541 14.3515 20.5733 16.0939 20.3626 17.0244C20.3419 17.1172 20.3166 17.2262 20.2905 17.3335C19.9241 16.9681 19.3309 16.4948 18.4212 16.646C17.6627 16.7729 17.0898 17.26 16.6858 17.76C16.0022 16.9231 15.1157 16.4649 14.1378 16.4649C14.0013 16.4649 13.8673 16.4758 13.7348 16.4923C13.3807 15.6846 12.7269 14.5874 11.7494 14.4471C10.4451 14.26 9.40703 15.1444 8.72026 15.7296C8.34681 16.0478 7.61186 16.4744 6.87727 15.7644C6.32729 15.2316 5.77134 15.1961 5.40246 15.2605C5.10848 15.3115 4.84685 15.443 4.61828 15.61C4.2589 14.6465 3.83059 13.8447 3.41353 13.1232L3.27428 12.8717C2.45072 11.385 1.85608 10.3117 1.83323 7.42857C1.83323 7.29108 1.83639 7.14022 1.83956 6.97741L1.83991 6.94787C1.90848 5.10312 2.51472 3.91912 3.86189 2.99182C4.74839 2.39156 5.95806 1.98857 7.36255 1.82506L9.74918 1.79165C11.0485 1.90031 12.2986 2.19358 13.1904 2.60009L13.6363 2.79771L16.9291 4.544C17.0498 4.608 17.1788 4.63824 17.3061 4.63824C17.5948 4.63824 17.874 4.48317 18.0189 4.20958C18.2278 3.81574 18.0776 3.32835 17.6845 3.11947L15.948 2.19851C16.952 1.91684 18.124 1.75086 19.2349 1.75086H19.3182C21.2178 1.75086 22.9754 2.20202 24.1348 2.98444C25.4854 3.91666 26.0913 5.10277 26.161 6.92923L26.1638 7.12299C26.1655 7.22884 26.1673 7.33046 26.1673 7.42119C26.1413 10.3251 25.5445 11.4008 24.7181 12.8904Z" fill="#3167D9"/>
<path d="M8.84758 21.2381C8.60108 20.8671 8.10068 20.7676 7.73004 21.0134C7.3594 21.2599 7.25883 21.76 7.50534 22.131L7.54965 22.1974C7.70472 22.4309 7.96072 22.5568 8.22165 22.5568C8.37497 22.5568 8.53004 22.5128 8.66718 22.4225C9.03782 22.176 9.13875 21.6752 8.89224 21.3042L8.84758 21.2381Z" fill="#3167D9"/>
<path d="M7.29714 18.9128L7.25248 18.8463C7.00527 18.4753 6.50523 18.3779 6.13424 18.6237C5.76395 18.8716 5.66443 19.3724 5.91199 19.7419L5.9563 19.8084C6.11173 20.0415 6.36703 20.1671 6.62725 20.1671C6.78127 20.1671 6.93705 20.1224 7.07419 20.031C7.44518 19.7831 7.5447 19.2823 7.29714 18.9128Z" fill="#3167D9"/>
<path d="M7.67194 23.7947C7.22676 23.7947 6.86597 24.1548 6.86597 24.6003V24.6801C6.86597 25.1257 7.22676 25.4865 7.67194 25.4865C8.11748 25.4865 8.47828 25.1253 8.47792 24.6801V24.6003C8.47792 24.1548 8.11713 23.7947 7.67194 23.7947Z" fill="#3167D9"/>
<path d="M20.7214 24.9977C20.2857 24.9041 19.8574 25.1805 19.7628 25.6159L19.746 25.6943C19.6524 26.1293 19.9292 26.5583 20.3642 26.6529C20.4215 26.6652 20.4784 26.6708 20.5347 26.6708C20.9064 26.6708 21.2405 26.4127 21.3224 26.0347L21.3393 25.9559C21.4332 25.5209 21.1568 25.0916 20.7214 24.9977Z" fill="#3167D9"/>
<path d="M21.3325 22.1908C20.8975 22.0945 20.4678 22.3705 20.3725 22.8048L20.3553 22.8829C20.2593 23.3171 20.5343 23.7483 20.9689 23.8432C21.0273 23.8562 21.0853 23.8626 21.143 23.8626C21.5129 23.8626 21.8463 23.6059 21.9289 23.2292L21.9462 23.1515C22.0422 22.7172 21.7672 22.2865 21.3325 22.1908Z" fill="#3167D9"/>
<path d="M5.69949 11.6794C5.36753 11.6794 5.04859 11.494 4.89316 11.1758C3.95883 9.25826 3.94125 5.74037 6.33843 4.12067C6.74846 3.84252 7.30547 3.95118 7.58221 4.3612C7.85896 4.77122 7.75065 5.32823 7.34133 5.60498C5.88481 6.58854 5.87215 9.0965 6.50336 10.3906C6.71997 10.835 6.53571 11.3713 6.09087 11.5883C5.96463 11.6498 5.831 11.6794 5.69949 11.6794Z" fill="#3167D9"/>
</svg>
