<svg width="18" height="15" viewBox="0 0 18 15" fill="none" xmlns="http://www.w3.org/2000/svg">
<path d="M5.41233 14.5C11.9144 14.5 15.4713 9.11244 15.4713 4.44854C15.4713 4.29777 15.4713 4.14486 15.4649 3.9941C16.1574 3.4928 16.755 2.87217 17.2299 2.16127C16.583 2.44648 15.8975 2.63445 15.1957 2.71909C15.935 2.27718 16.4887 1.58189 16.7539 0.762425C16.0593 1.17392 15.299 1.46279 14.5065 1.61638C13.9736 1.0489 13.2685 0.672956 12.5003 0.54679C11.7322 0.420625 10.9439 0.551275 10.2575 0.918503C9.57113 1.28573 9.025 1.86904 8.70371 2.57809C8.38242 3.28713 8.3039 4.08233 8.48032 4.84052C7.07473 4.77004 5.69965 4.40489 4.44427 3.76876C3.18889 3.13263 2.08124 2.23972 1.19317 1.14794C0.742327 1.92661 0.604739 2.84767 0.808345 3.72409C1.01195 4.60052 1.54148 5.3666 2.28942 5.86677C1.72895 5.84773 1.18081 5.69723 0.689194 5.42741V5.47587C0.69016 6.29157 0.972741 7.08193 1.48917 7.71333C2.0056 8.34474 2.7242 8.77848 3.5235 8.94122C3.22011 9.0248 2.90671 9.06647 2.59202 9.06506C2.37016 9.06573 2.14876 9.04518 1.93082 9.00368C2.15673 9.70586 2.59662 10.3198 3.18886 10.7595C3.78111 11.1992 4.49606 11.4426 5.23357 11.4557C3.98069 12.4397 2.43307 12.9734 0.839955 12.9709C0.559239 12.972 0.278718 12.9559 0 12.9224C1.61693 13.9532 3.49475 14.5006 5.41233 14.5Z" fill="white"/>
</svg>
