<svg width="14" height="15" viewBox="0 0 14 15" fill="none" xmlns="http://www.w3.org/2000/svg">
<path d="M7.00001 0.5C10.8661 0.5 14 3.6339 14 7.5C14 11.3661 10.8661 14.5 7.00001 14.5C5.76295 14.502 4.54767 14.1746 3.47901 13.5515L0.00280985 14.5L0.949209 11.0224C0.325575 9.95341 -0.00205686 8.73759 9.71617e-06 7.5C9.71617e-06 3.6339 3.13391 0.5 7.00001 0.5ZM4.61441 4.21L4.47441 4.2156C4.38377 4.22112 4.29519 4.24493 4.21401 4.2856C4.13807 4.3286 4.06875 4.38235 4.00821 4.4452C3.92421 4.5243 3.87661 4.5929 3.82551 4.6594C3.56659 4.99603 3.42719 5.40932 3.42931 5.834C3.43071 6.177 3.52031 6.5109 3.66031 6.8231C3.94661 7.45449 4.41771 8.12299 5.03931 8.74249C5.18911 8.89159 5.33611 9.04139 5.49431 9.18069C6.26668 9.86072 7.18708 10.3511 8.1823 10.6129L8.5799 10.6738C8.7094 10.6808 8.8389 10.671 8.9691 10.6647C9.17297 10.6542 9.37203 10.599 9.5522 10.503C9.64387 10.4558 9.73333 10.4044 9.8203 10.349C9.8203 10.349 9.8504 10.3294 9.9078 10.286C10.0023 10.216 10.0604 10.1663 10.1388 10.0844C10.1969 10.0242 10.2473 9.95349 10.2858 9.87299C10.3404 9.75889 10.395 9.54119 10.4174 9.35989C10.4342 9.22129 10.4293 9.14569 10.4272 9.09879C10.4244 9.02389 10.3621 8.94619 10.2942 8.91329L9.8868 8.73059C9.8868 8.73059 9.2778 8.46529 8.9054 8.29589C8.86644 8.27888 8.82468 8.26915 8.7822 8.26719C8.73431 8.26228 8.68592 8.26766 8.64028 8.283C8.59464 8.29833 8.55281 8.32326 8.5176 8.35609C8.5141 8.35469 8.4672 8.39459 7.9611 9.00779C7.93206 9.04683 7.89204 9.07633 7.84617 9.09253C7.80029 9.10874 7.75062 9.11092 7.7035 9.09879C7.6579 9.08657 7.61323 9.07113 7.5698 9.05259C7.483 9.01619 7.4529 9.00219 7.3934 8.97699C6.99165 8.80168 6.61969 8.5648 6.29091 8.27489C6.20271 8.1979 6.12081 8.11389 6.03681 8.03269C5.76142 7.76896 5.52141 7.4706 5.32281 7.1451L5.28151 7.0786C5.25184 7.03391 5.22786 6.98571 5.21011 6.9351C5.18351 6.8322 5.25281 6.7496 5.25281 6.7496C5.25281 6.7496 5.42291 6.5634 5.50201 6.4626C5.57901 6.3646 5.64411 6.2694 5.68611 6.2015C5.76871 6.0685 5.79461 5.932 5.75121 5.8263C5.55521 5.3475 5.35221 4.8708 5.14361 4.3976C5.10231 4.3038 4.97981 4.2366 4.86851 4.2233C4.83071 4.2191 4.79291 4.2149 4.75511 4.2121C4.6611 4.20743 4.5669 4.20836 4.47301 4.2149L4.61371 4.2093L4.61441 4.21Z" fill="white"/>
</svg>
