<svg aria-hidden="true" xmlns="http://www.w3.org/2000/svg" xmlns:xlink="http://www.w3.org/1999/xlink">
    <symbol viewBox="0 0 12 18" id="arrow" xmlns="http://www.w3.org/2000/svg">
        <path fill-rule="evenodd" clip-rule="evenodd"
            d="M1.21163 8.02755C0.95818 8.28108 0.815798 8.6249 0.815798 8.98339C0.815798 9.34188 0.95818 9.68569 1.21163 9.93922L8.85967 17.5873C8.98439 17.7164 9.13357 17.8194 9.29851 17.8902C9.46346 17.9611 9.64086 17.9984 9.82037 17.9999C9.99989 18.0015 10.1779 17.9673 10.3441 17.8993C10.5102 17.8313 10.6612 17.731 10.7881 17.604C10.915 17.4771 11.0154 17.3261 11.0834 17.16C11.1514 16.9938 11.1856 16.8158 11.184 16.6363C11.1825 16.4568 11.1452 16.2794 11.0743 16.1144C11.0035 15.9495 10.9005 15.8003 10.7713 15.6756L4.07914 8.98339L10.7713 2.29118C11.0176 2.0362 11.1539 1.69469 11.1508 1.34021C11.1477 0.985732 11.0055 0.646644 10.7549 0.39598C10.5042 0.145315 10.1651 0.00313144 9.81064 5.11077e-05C9.45616 -0.00302922 9.11466 0.133241 8.85967 0.379511L1.21163 8.02755Z" />
    </symbol>
    <symbol viewBox="0 0 25 24" id="clock" xmlns="http://www.w3.org/2000/svg">
        <path
            d="M12.3335 0.000244141C5.70638 0.000244141 0.333496 5.37313 0.333496 12.0002C0.333496 18.6274 5.70638 24.0002 12.3335 24.0002C18.9606 24.0002 24.3335 18.6274 24.3335 12.0002C24.3335 5.37313 18.9606 0.000244141 12.3335 0.000244141ZM17.872 13.8464H12.3335C12.0887 13.8464 11.8539 13.7491 11.6808 13.576C11.5077 13.4029 11.4104 13.1681 11.4104 12.9233V4.61563C11.4104 4.37081 11.5077 4.13603 11.6808 3.96291C11.8539 3.7898 12.0887 3.69255 12.3335 3.69255C12.5783 3.69255 12.8131 3.7898 12.9862 3.96291C13.1593 4.13603 13.2566 4.37081 13.2566 4.61563V12.0002H17.872C18.1168 12.0002 18.3516 12.0975 18.5247 12.2706C18.6978 12.4437 18.795 12.6785 18.795 12.9233C18.795 13.1681 18.6978 13.4029 18.5247 13.576C18.3516 13.7491 18.1168 13.8464 17.872 13.8464Z" />
    </symbol>
    <symbol viewBox="0 0 8 15" id="facebook" xmlns="http://www.w3.org/2000/svg">
        <path
            d="M4.9 8.55H6.65L7.35 5.75H4.9V4.35C4.9 3.629 4.9 2.95 6.3 2.95H7.35V0.598C7.1218 0.5679 6.2601 0.5 5.3501 0.5C3.4496 0.5 2.1 1.6599 2.1 3.79V5.75H0V8.55H2.1V14.5H4.9V8.55Z" />
    </symbol>
    <symbol viewBox="0 0 14 15" id="instagram" xmlns="http://www.w3.org/2000/svg">
        <path
            d="M7.71974 0.500861C8.23054 0.498901 8.74133 0.504035 9.25199 0.516261L9.38778 0.521161C9.54458 0.52676 9.69927 0.53376 9.88617 0.54216C10.6309 0.577159 11.1391 0.694755 11.585 0.867649C12.047 1.04544 12.4362 1.28623 12.8254 1.67542C13.1812 2.02513 13.4566 2.44816 13.6324 2.91508C13.8053 3.36096 13.9229 3.86985 13.9579 4.61462C13.9663 4.80081 13.9733 4.95621 13.9789 5.113L13.9831 5.2488C13.9956 5.75922 14.0009 6.26978 13.9992 6.78035L13.9999 7.30253V8.2195C14.0017 8.7303 13.9963 9.2411 13.9838 9.75175L13.9796 9.88754C13.974 10.0443 13.967 10.199 13.9586 10.3859C13.9236 11.1307 13.8046 11.6389 13.6324 12.0848C13.4572 12.5522 13.1817 12.9756 12.8254 13.3251C12.4754 13.6809 12.0521 13.9563 11.585 14.1322C11.1391 14.3051 10.6309 14.4227 9.88617 14.4577C9.69927 14.4661 9.54458 14.4731 9.38778 14.4787L9.25199 14.4829C8.74134 14.4953 8.23054 14.5007 7.71974 14.499L7.19756 14.4997H6.28129C5.77049 14.5014 5.25969 14.496 4.74904 14.4836L4.61325 14.4794C4.44708 14.4734 4.28095 14.4664 4.11486 14.4584C3.37009 14.4234 2.86191 14.3044 2.41532 14.1322C1.94822 13.9567 1.52512 13.6813 1.17566 13.3251C0.819408 12.9753 0.543742 12.552 0.367891 12.0848C0.194997 11.6389 0.0774012 11.1307 0.0424024 10.3859C0.0346067 10.2198 0.0276069 10.0537 0.0214032 9.88754L0.0179034 9.75175C0.00499831 9.2411 -0.000835454 8.7303 0.000403887 8.2195V6.78035C-0.00154972 6.26978 0.00358398 5.75922 0.0158034 5.2488L0.0207032 5.113C0.026303 4.95621 0.0333028 4.80081 0.0417025 4.61462C0.0767013 3.86915 0.194297 3.36166 0.367191 2.91508C0.543146 2.44793 0.819351 2.02502 1.17636 1.67612C1.52558 1.31966 1.94841 1.04374 2.41532 0.867649C2.86191 0.694755 3.36939 0.577159 4.11486 0.54216L4.61325 0.521161L4.74904 0.517661C5.25945 0.504762 5.77002 0.498928 6.28059 0.500161L7.71974 0.500861ZM7.00017 4.00074C6.53644 3.99418 6.07603 4.07986 5.6457 4.25278C5.21536 4.42571 4.82369 4.68243 4.49344 5.00805C4.16319 5.33366 3.90095 5.72166 3.72196 6.1495C3.54296 6.57735 3.45079 7.0365 3.45079 7.50027C3.45079 7.96405 3.54296 8.4232 3.72196 8.85104C3.90095 9.27889 4.16319 9.66689 4.49344 9.9925C4.82369 10.3181 5.21536 10.5748 5.6457 10.7478C6.07603 10.9207 6.53644 11.0064 7.00017 10.9998C7.92839 10.9998 8.8186 10.6311 9.47495 9.97471C10.1313 9.31836 10.5 8.42815 10.5 7.49992C10.5 6.5717 10.1313 5.68149 9.47495 5.02513C8.8186 4.36878 7.92839 4.00074 7.00017 4.00074ZM7.00017 5.40069C7.27911 5.39555 7.55628 5.44605 7.81549 5.54923C8.07471 5.65242 8.31076 5.80622 8.50986 6.00166C8.70896 6.19709 8.86712 6.43024 8.97511 6.68749C9.08309 6.94474 9.13873 7.22092 9.13878 7.49992C9.13883 7.77891 9.08328 8.05511 8.97538 8.3124C8.86748 8.56968 8.7094 8.80289 8.51036 8.99839C8.31132 9.19389 8.07532 9.34777 7.81614 9.45104C7.55697 9.55431 7.27981 9.6049 7.00087 9.59985C6.44393 9.59985 5.9098 9.37861 5.51599 8.9848C5.12218 8.59098 4.90094 8.05686 4.90094 7.49992C4.90094 6.94299 5.12218 6.40886 5.51599 6.01505C5.9098 5.62124 6.44393 5.39999 7.00087 5.39999L7.00017 5.40069ZM10.675 2.95078C10.4492 2.95982 10.2357 3.05588 10.0791 3.21885C9.92251 3.38182 9.83506 3.59905 9.83506 3.82505C9.83506 4.05105 9.92251 4.26828 10.0791 4.43125C10.2357 4.59422 10.4492 4.69028 10.675 4.69932C10.9071 4.69932 11.1297 4.60713 11.2937 4.44305C11.4578 4.27896 11.55 4.0564 11.55 3.82435C11.55 3.59229 11.4578 3.36974 11.2937 3.20565C11.1297 3.04156 10.9071 2.94938 10.675 2.94938V2.95078Z" />
    </symbol>
    <symbol viewBox="0 0 31 24" id="mail" xmlns="http://www.w3.org/2000/svg">
        <path
            d="M30.6665 5.30273V19.5001C30.6665 20.6479 30.228 21.7523 29.4405 22.5875C28.6531 23.4226 27.5763 23.9252 26.4305 23.9926L26.1665 24.0001H5.1667C4.0189 24.0001 2.91445 23.5616 2.07934 22.7741C1.24423 21.9867 0.741586 20.9099 0.674248 19.7641L0.666748 19.5001V5.30273L14.8341 14.7481L15.0081 14.8471C15.2132 14.9473 15.4384 14.9994 15.6666 14.9994C15.8948 14.9994 16.12 14.9473 16.3251 14.8471L16.4991 14.7481L30.6665 5.30273Z" />
        <path
            d="M26.1662 0C27.7862 0 29.2067 0.854992 29.9987 2.14048L15.6663 11.6954L1.33398 2.14048C1.71008 1.52964 2.2268 1.01759 2.84103 0.647068C3.45527 0.276543 4.14921 0.0582838 4.86495 0.0104999L5.16645 0H26.1662Z" />
    </symbol>
    <symbol viewBox="0 0 20 25" id="mark" xmlns="http://www.w3.org/2000/svg">
        <path
            d="M9.82857 0.480469C7.3288 0.483305 4.93223 1.47759 3.16463 3.24519C1.39702 5.0128 0.402738 7.40937 0.399902 9.90913C0.399902 17.9771 8.97142 24.0703 9.33678 24.3254C9.4809 24.4263 9.6526 24.4805 9.82857 24.4805C10.0045 24.4805 10.1762 24.4263 10.3204 24.3254C10.6857 24.0703 19.2572 17.9771 19.2572 9.90913C19.2544 7.40937 18.2601 5.0128 16.4925 3.24519C14.7249 1.47759 12.3283 0.483305 9.82857 0.480469ZM9.82857 6.48053C10.5067 6.48053 11.1696 6.68161 11.7334 7.05835C12.2972 7.43509 12.7367 7.97057 12.9962 8.59706C13.2557 9.22356 13.3236 9.91294 13.1913 10.578C13.059 11.2431 12.7325 11.854 12.253 12.3335C11.7735 12.813 11.1625 13.1396 10.4975 13.2719C9.83237 13.4042 9.14299 13.3363 8.5165 13.0768C7.89 12.8173 7.35453 12.3778 6.97779 11.814C6.60105 11.2501 6.39996 10.5872 6.39996 9.90913C6.39996 8.99981 6.76119 8.12773 7.40418 7.48474C8.04717 6.84176 8.91925 6.48053 9.82857 6.48053Z" />
    </symbol>
    <symbol viewBox="0 0 16 17" id="phone" xmlns="http://www.w3.org/2000/svg">
        <path
            d="M15.0667 16.5C13.1556 16.5 11.2927 16.0739 9.47822 15.2218C7.6637 14.3696 6.0563 13.2437 4.656 11.844C3.2557 10.4443 2.12978 8.83689 1.27822 7.02178C0.426667 5.20667 0.000592593 3.34385 0 1.43333C0 1.16667 0.0888888 0.944444 0.266667 0.766667C0.444444 0.588889 0.666667 0.5 0.933334 0.5H4.53333C4.74074 0.5 4.92593 0.566667 5.08889 0.7C5.25185 0.833333 5.34815 1.0037 5.37778 1.21111L5.95556 4.32222C5.98519 4.52963 5.98133 4.71867 5.944 4.88933C5.90667 5.06 5.82163 5.2117 5.68889 5.34444L3.55556 7.52222C4.17778 8.58889 4.95556 9.58889 5.88889 10.5222C6.82222 11.4556 7.85185 12.263 8.97778 12.9444L11.0667 10.8556C11.2 10.7222 11.3742 10.6224 11.5893 10.556C11.8044 10.4896 12.0154 10.471 12.2222 10.5L15.2889 11.1222C15.4963 11.1667 15.6667 11.2668 15.8 11.4227C15.9333 11.5785 16 11.7599 16 11.9667V15.5667C16 15.8333 15.9111 16.0556 15.7333 16.2333C15.5556 16.4111 15.3333 16.5 15.0667 16.5Z" />
    </symbol>
    <symbol viewBox="0 0 32 32" id="toothplus" xmlns="http://www.w3.org/2000/svg">
        <path fill-rule="evenodd" clip-rule="evenodd"
            d="M29.5628 2.87271C25.3951 -1.96263 19.6064 0.589602 16.9636 2.17496L21.9022 6.45499C22.273 6.77631 22.313 7.33739 21.9917 7.70809C21.6704 8.07889 21.1093 8.11896 20.7386 7.79764L14.076 2.02336C14.0377 1.99022 14.003 1.95452 13.9718 1.91675C9.21805 -1.32192 5.02459 -0.313609 1.58437 3.86572C-1.49631 7.60824 0.604078 14.3544 2.11399 19.2039C2.474 20.3602 2.80045 21.4087 3.01509 22.2829C4.12994 26.8237 5.19649 29.6532 7.62852 31.701C8.83295 32.715 10.1986 30.9724 11.6394 29.1338C12.8887 27.5398 14.1944 25.8737 15.5005 25.8697C16.7852 25.8658 18.0702 27.5293 19.3021 29.1239C20.724 30.9645 22.0751 32.7135 23.2732 31.701C25.2468 30.033 26.076 28.837 27.1888 25.1141C26.2081 25.5434 25.1246 25.7816 23.9854 25.7816C19.5698 25.7816 15.9903 22.2021 15.9903 17.7865C15.9903 13.3709 19.5698 9.79136 23.9854 9.79136C27.042 9.79136 29.698 11.5066 31.0433 14.0269L31.205 13.5635C32.3247 10.0063 32.5807 6.37397 29.5628 2.87271Z" />
        <path fill-rule="evenodd" clip-rule="evenodd"
            d="M23.9851 24.0048C27.4195 24.0048 30.2036 21.2207 30.2036 17.7864C30.2036 14.352 27.4195 11.5679 23.9851 11.5679C20.5508 11.5679 17.7667 14.352 17.7667 17.7864C17.7667 21.2207 20.5508 24.0048 23.9851 24.0048ZM23.9854 25.7816C28.4011 25.7816 31.9803 22.202 31.9803 17.7864C31.9803 13.3708 28.4011 9.79136 23.9854 9.79136C19.5698 9.79136 15.9903 13.3709 15.9903 17.7865C15.9903 22.2021 19.5698 25.7816 23.9854 25.7816Z" />
        <path
            d="M23.0969 14.2327C23.0969 13.7421 23.4946 13.3444 23.9852 13.3444C24.4759 13.3444 24.8736 13.7421 24.8736 14.2327V21.3395C24.8736 21.8302 24.4759 22.2279 23.9852 22.2279C23.4946 22.2279 23.0969 21.8302 23.0969 21.3395V14.2327Z" />
        <path
            d="M20.4321 18.6748C19.9415 18.6748 19.5438 18.2771 19.5438 17.7865C19.5438 17.2958 19.9415 16.8981 20.4321 16.8981H27.5389C28.0295 16.8981 28.4272 17.2958 28.4272 17.7865C28.4272 18.2771 28.0295 18.6748 27.5389 18.6748H20.4321Z" />
    </symbol>
    <symbol viewBox="0 0 28 32" id="toothroot" xmlns="http://www.w3.org/2000/svg">
        <path
            d="M27.3288 7.11878L27.3253 6.90674C27.243 4.71175 26.4391 3.16133 24.7941 2.02516C23.4206 1.09716 21.4749 0.586914 19.3147 0.586914H19.2388C17.4904 0.586914 15.6576 0.942079 14.3375 1.53601L13.9999 1.68652L13.6662 1.53742C12.6541 1.07676 11.2472 0.745507 9.77169 0.62665L7.27041 0.663222C5.66267 0.844672 4.25819 1.31553 3.20606 2.02867C1.5614 3.16133 0.757532 4.70999 0.675598 6.91061L0.674894 6.95456C0.671378 7.12546 0.668213 7.28441 0.668213 7.43175C0.69318 10.6173 1.41722 11.9234 2.2552 13.4358L2.39656 13.6914C3.38786 15.4057 4.35314 17.3837 4.32571 21.0279C4.325 25.894 5.20764 28.3988 5.94821 29.6447C6.79744 31.0576 7.15999 31.4131 8.27718 31.4131C9.3374 31.4131 9.89652 30.4749 9.9672 29.6088C10.0235 29.0388 10.0333 28.3685 10.0453 27.6572C10.0716 25.9749 10.1047 23.879 10.7443 21.7182L10.7602 21.6679C11.0162 20.8327 11.3348 19.7943 11.9431 18.874C12.3419 18.2738 13.1974 17.6281 14.1374 17.6281C14.8875 17.6281 15.5503 18.0561 16.0514 18.8652C16.6302 19.7985 16.9717 20.7877 17.2537 21.715C17.9018 23.8924 18.1708 26.3223 17.9915 28.3791C17.893 29.5082 18.0875 30.349 18.5706 30.8758C19.0387 31.3867 19.6108 31.4128 19.7209 31.4128H19.7219C20.7403 31.4128 21.1964 31.066 22.0481 29.6436C22.7894 28.4005 23.6741 25.895 23.673 21.0254C23.6481 17.3883 24.6141 15.4064 25.6085 13.6827L25.7344 13.4555C26.6097 11.8773 27.3014 10.6314 27.3309 7.42718C27.3327 7.32977 27.3309 7.22603 27.3288 7.11878Z" />
        <path
            d="M22.7469 14.8874L22.665 14.886C21.3621 14.886 21.0688 16.1793 20.8554 17.1231C20.7731 17.4864 20.6602 17.9829 20.5319 18.0729C20.5115 18.086 20.4999 18.0916 20.4995 18.0933C20.4345 18.0765 20.284 17.9158 20.1834 17.8092C19.8493 17.4547 19.3753 16.9487 18.5503 17.0866C17.4662 17.268 16.8065 18.5702 16.509 19.3304L16.4524 19.4767L16.5203 19.6174C16.8754 20.3442 17.1188 21.088 17.3101 21.715C17.9585 23.8927 18.2268 26.3223 18.0478 28.3791C17.9497 29.5082 18.1438 30.349 18.627 30.8758C19.095 31.3867 19.6672 31.4127 19.7772 31.4127H19.7786C20.7963 31.4127 21.2524 31.066 22.1041 29.6436C22.8461 28.4005 23.7305 25.895 23.7298 21.0254C23.7143 18.8462 24.0483 17.0549 24.7812 15.3881L25.002 14.8853L22.7469 14.8874Z" />
        <path
            d="M11.742 14.8908C10.6438 14.7354 9.72037 15.5143 9.06561 16.0706C8.88099 16.2282 8.38341 16.5949 7.77013 16.5956C7.3573 16.5956 6.97084 16.4244 6.62024 16.0857C6.36037 15.8333 6.05901 15.706 5.72565 15.706C5.18306 15.706 4.60143 16.0474 3.9973 16.7198L3.86719 16.8639L3.91818 17.0521C4.24134 18.2515 4.3929 19.5516 4.38165 21.0282C4.38095 25.8943 5.26358 28.3991 6.00415 29.645C6.85339 31.0582 7.21558 31.4134 8.33312 31.4134C9.39334 31.4134 9.95211 30.4752 10.0238 29.6091C10.0794 29.0391 10.0903 28.3688 10.1019 27.6574C10.1286 25.9752 10.161 23.8797 10.8006 21.7184L10.8161 21.6675C11.0725 20.833 11.3914 19.7946 11.9998 18.8743C12.35 18.3475 12.9485 17.9073 13.5635 17.7251L13.9697 17.6045L13.7837 17.224C13.0719 15.7679 12.3845 14.9826 11.742 14.8908Z" />
        <path
            d="M27.7761 7.09732L27.7729 6.88985C27.684 4.54084 26.8189 2.87859 25.0441 1.65415C23.5978 0.677275 21.5642 0.13855 19.3186 0.13855L19.2813 0.139253L19.2352 0.13855C17.4295 0.13855 15.5292 0.509187 14.1567 1.12668L14.001 1.19596L13.8522 1.12985C12.7804 0.641759 11.3569 0.304528 9.84272 0.181451C9.8167 0.179341 9.79068 0.178638 9.76606 0.179341L7.29995 0.213099C7.27323 0.213099 7.24685 0.215561 7.22013 0.218374C5.54136 0.407912 4.0669 0.905495 2.95217 1.66013C1.18057 2.8793 0.31516 4.54048 0.227599 6.9018L0.226896 6.94576C0.22338 7.12053 0.220215 7.28158 0.220215 7.43561C0.245885 10.7344 0.995248 12.0876 1.86312 13.6538L2.0087 13.9168C2.9687 15.5784 3.90443 17.4952 3.87736 21.0289C3.87665 25.9967 4.79305 28.5802 5.56421 29.8771C6.41169 31.2879 6.8945 31.8622 8.27683 31.8622C9.56105 31.8622 10.3238 30.745 10.4124 29.6545C10.4701 29.0658 10.481 28.3868 10.4926 27.6677C10.5193 26.0111 10.5513 23.9501 11.173 21.8518L11.186 21.8099C11.4469 20.9582 11.7427 19.9926 12.3169 19.1244C12.6619 18.6043 13.3979 18.0782 14.1385 18.0782C14.7334 18.0782 15.2497 18.4225 15.672 19.1036C16.2241 19.994 16.5529 20.9498 16.8243 21.8455C17.4485 23.9416 17.7186 26.3701 17.5459 28.3422C17.4359 29.6018 17.6701 30.5572 18.2415 31.1807C18.821 31.8129 19.5215 31.8622 19.7216 31.8622H19.7233C21.0336 31.8622 21.5952 31.2763 22.4338 29.875C23.2047 28.583 24.1239 25.9991 24.1228 21.0233C24.0985 17.4994 25.0343 15.5794 26.0027 13.9L26.1286 13.6728C26.9982 12.1048 27.7494 10.7495 27.7792 7.42892C27.7796 7.32273 27.7778 7.21196 27.7761 7.09732ZM10.9729 18.2326C10.2693 19.2956 9.9236 20.4269 9.64509 21.3356L9.62997 21.3851C8.94391 23.7029 8.90874 25.8862 8.88131 27.6406C8.87006 28.3559 8.85951 28.9734 8.80782 29.5089C8.80712 29.5163 8.73503 30.2488 8.27789 30.2488C7.75147 30.2488 7.67024 30.2488 6.94936 29.0483C6.40465 28.1326 5.49037 25.8722 5.49107 21.0338C5.50162 19.6192 5.36589 18.4288 5.14224 17.3989C5.32123 17.1239 5.55683 16.8689 5.65564 16.8471C5.65564 16.8471 5.69081 16.8591 5.75586 16.9227C7.06646 18.1904 8.71428 17.8532 9.76536 16.9572C10.2872 16.5131 10.9353 15.9567 11.5078 16.0408C11.6797 16.1027 11.9698 16.5366 12.2111 17.0493C11.6864 17.3774 11.256 17.8054 10.9729 18.2326ZM21.0501 29.0469C20.3331 30.2446 20.1784 30.2488 19.7279 30.2488C19.7015 30.2467 19.551 30.2291 19.4192 30.0775C19.2806 29.9189 19.0629 29.4994 19.1516 28.4814C19.3443 26.2857 19.0587 23.699 18.3681 21.3806C18.1638 20.7061 17.9268 20.0004 17.598 19.2921C17.8325 18.8642 18.2454 18.31 18.6874 18.2358C18.8614 18.2069 18.9606 18.2706 19.281 18.6092C19.5486 18.8927 20.2568 19.6431 21.1405 19.0295C21.6409 18.6827 21.7836 18.0501 21.9356 17.3806C22.1972 16.2219 22.3533 16.0461 22.6406 16.051L23.2226 16.0767C22.7915 17.3806 22.4964 18.969 22.5109 21.0286C22.5112 25.8739 21.5955 28.1326 21.0501 29.0469ZM24.7181 12.8904L24.5982 13.107C24.3507 13.5356 24.0996 13.9914 23.8612 14.49L22.7106 14.4394C20.9541 14.3515 20.5733 16.0939 20.3626 17.0244C20.3419 17.1172 20.3166 17.2262 20.2905 17.3335C19.9241 16.9681 19.3309 16.4948 18.4212 16.646C17.6627 16.7729 17.0898 17.26 16.6858 17.76C16.0022 16.9231 15.1157 16.4649 14.1378 16.4649C14.0013 16.4649 13.8673 16.4758 13.7348 16.4923C13.3807 15.6846 12.7269 14.5874 11.7494 14.4471C10.4451 14.26 9.40703 15.1444 8.72026 15.7296C8.34681 16.0478 7.61186 16.4744 6.87727 15.7644C6.32729 15.2316 5.77134 15.1961 5.40246 15.2605C5.10848 15.3115 4.84685 15.443 4.61828 15.61C4.2589 14.6465 3.83059 13.8447 3.41353 13.1232L3.27428 12.8717C2.45072 11.385 1.85608 10.3117 1.83323 7.42857C1.83323 7.29108 1.83639 7.14022 1.83956 6.97741L1.83991 6.94787C1.90848 5.10312 2.51472 3.91912 3.86189 2.99182C4.74839 2.39156 5.95806 1.98857 7.36255 1.82506L9.74918 1.79165C11.0485 1.90031 12.2986 2.19358 13.1904 2.60009L13.6363 2.79771L16.9291 4.544C17.0498 4.608 17.1788 4.63824 17.3061 4.63824C17.5948 4.63824 17.874 4.48317 18.0189 4.20958C18.2278 3.81574 18.0776 3.32835 17.6845 3.11947L15.948 2.19851C16.952 1.91684 18.124 1.75086 19.2349 1.75086H19.3182C21.2178 1.75086 22.9754 2.20202 24.1348 2.98444C25.4854 3.91666 26.0913 5.10277 26.161 6.92923L26.1638 7.12299C26.1655 7.22884 26.1673 7.33046 26.1673 7.42119C26.1413 10.3251 25.5445 11.4008 24.7181 12.8904Z" />
        <path
            d="M8.84758 21.2381C8.60108 20.8671 8.10068 20.7676 7.73004 21.0134C7.3594 21.2599 7.25883 21.76 7.50534 22.131L7.54965 22.1974C7.70472 22.4309 7.96072 22.5568 8.22165 22.5568C8.37497 22.5568 8.53004 22.5128 8.66718 22.4225C9.03782 22.176 9.13875 21.6752 8.89224 21.3042L8.84758 21.2381Z" />
        <path
            d="M7.29714 18.9128L7.25248 18.8463C7.00527 18.4753 6.50523 18.3779 6.13424 18.6237C5.76395 18.8716 5.66443 19.3724 5.91199 19.7419L5.9563 19.8084C6.11173 20.0415 6.36703 20.1671 6.62725 20.1671C6.78127 20.1671 6.93705 20.1224 7.07419 20.031C7.44518 19.7831 7.5447 19.2823 7.29714 18.9128Z" />
        <path
            d="M7.67194 23.7947C7.22676 23.7947 6.86597 24.1548 6.86597 24.6003V24.6801C6.86597 25.1257 7.22676 25.4865 7.67194 25.4865C8.11748 25.4865 8.47828 25.1253 8.47792 24.6801V24.6003C8.47792 24.1548 8.11713 23.7947 7.67194 23.7947Z" />
        <path
            d="M20.7214 24.9977C20.2857 24.9041 19.8574 25.1805 19.7628 25.6159L19.746 25.6943C19.6524 26.1293 19.9292 26.5583 20.3642 26.6529C20.4215 26.6652 20.4784 26.6708 20.5347 26.6708C20.9064 26.6708 21.2405 26.4127 21.3224 26.0347L21.3393 25.9559C21.4332 25.5209 21.1568 25.0916 20.7214 24.9977Z" />
        <path
            d="M21.3325 22.1908C20.8975 22.0945 20.4678 22.3705 20.3725 22.8048L20.3553 22.8829C20.2593 23.3171 20.5343 23.7483 20.9689 23.8432C21.0273 23.8562 21.0853 23.8626 21.143 23.8626C21.5129 23.8626 21.8463 23.6059 21.9289 23.2292L21.9462 23.1515C22.0422 22.7172 21.7672 22.2865 21.3325 22.1908Z" />
        <path
            d="M5.69949 11.6794C5.36753 11.6794 5.04859 11.494 4.89316 11.1758C3.95883 9.25826 3.94125 5.74037 6.33843 4.12067C6.74846 3.84252 7.30547 3.95118 7.58221 4.3612C7.85896 4.77122 7.75065 5.32823 7.34133 5.60498C5.88481 6.58854 5.87215 9.0965 6.50336 10.3906C6.71997 10.835 6.53571 11.3713 6.09087 11.5883C5.96463 11.6498 5.831 11.6794 5.69949 11.6794Z" />
    </symbol>
    <symbol viewBox="0 0 29 32" id="toothsick" xmlns="http://www.w3.org/2000/svg">
        <path
            d="M27.5397 5.8194C27.093 4.12979 25.7851 2.51662 23.8574 1.27754C21.483 -0.249886 18.1251 -0.419721 15.0959 0.833017L14.9894 0.878343C14.9375 0.900733 14.8867 0.923123 14.8365 0.940598C14.5826 1.02907 14.3876 1.10443 14.2287 1.16613C13.7247 1.36164 13.7241 1.36109 12.8951 1.11699C10.5278 0.419625 7.51393 -0.276645 5.20286 0.542496C2.07374 1.65107 -0.700414 5.32136 0.158046 11.0215C0.259619 11.6954 0.358462 12.3753 0.457305 13.0579C1.17378 17.982 1.91428 23.0738 3.81851 27.6713L3.8835 27.8292C4.35641 28.9803 5.1477 30.9075 6.52495 30.9075H6.63581L6.73793 30.8643C8.00214 30.3292 8.47505 29.1158 8.82018 28.23L7.80281 27.833C7.45331 28.7297 7.1262 29.45 6.43102 29.8033C5.81175 29.6487 5.15043 28.0389 4.89377 27.4141L4.82769 27.253C2.97589 22.7822 2.24467 17.7586 1.53802 12.9011C1.43809 12.2163 1.33925 11.5354 1.23767 10.8598C0.686118 7.19555 1.81107 2.90326 5.56765 1.57188C7.58492 0.857046 10.4901 1.55058 12.5249 2.14637C16.0335 4.13962 16.033 5.00135 16.0193 8.56461L16.0177 9.28546C16.0177 9.58745 16.2623 9.83155 16.5638 9.83155C16.8652 9.83155 17.1099 9.58745 17.1099 9.28546L17.1115 8.56843C17.123 5.44478 17.1186 3.97415 14.6235 2.18405C14.7732 2.12617 14.9555 2.05572 15.1953 1.97217C15.2717 1.94541 15.3471 1.91374 15.423 1.88043L15.5126 1.8422C18.2168 0.724345 21.1881 0.85923 23.2665 2.19552C24.9644 3.28716 26.1068 4.67315 26.4836 6.09845C27.6211 10.3973 26.3907 15.5093 25.3046 20.02C25.1052 20.8495 24.9097 21.661 24.7339 22.4469L24.5761 23.1601C24.1501 25.1003 23.7094 27.1061 22.7221 28.8356C22.3901 29.4177 22.0493 29.7405 21.8227 29.7274C21.5726 29.7017 20.8818 29.3063 19.8737 26.2018L18.835 26.5387C19.4958 28.5746 20.3548 30.6743 21.7113 30.8136C22.4256 30.8884 23.0852 30.4034 23.6712 29.3773C24.7405 27.5026 25.1997 25.4143 25.6431 23.3949L25.7999 22.6861C25.9752 21.9051 26.169 21.0996 26.3673 20.2756C27.4829 15.6398 28.7477 10.3847 27.5397 5.8194Z" />
        <path d="M12.3506 11.2482L10.3923 13.2065V15.6169H18.0376V13.2065L16.0794 11.2482H12.3506Z" />
        <path
            d="M15.8533 18.1655C15.6245 18.1655 15.4115 18.0208 15.335 17.7919C15.2395 17.5058 15.394 17.1962 15.6802 17.1011L16.8575 16.7085H10.3923V18.6925L13.5034 17.7046C13.7901 17.6123 14.0976 17.7717 14.1893 18.0595C14.2805 18.3468 14.1216 18.6542 13.8344 18.7454L10.3923 19.8382V21.969L13.5034 20.9811C13.7901 20.8888 14.0976 21.0483 14.1893 21.3361C14.2805 21.6233 14.1216 21.9308 13.8344 22.022L10.3923 23.1147V25.2456L13.5034 24.2577C13.7901 24.1654 14.0976 24.3249 14.1893 24.6127C14.2805 24.8999 14.1216 25.2074 13.8344 25.2985L10.3923 26.3913V27.6298H11.4845V29.45L13.3958 31.9986H15.0341L16.9455 29.45V27.6298H18.0376V24.0185L16.0258 24.6891C15.9685 24.7082 15.9101 24.7175 15.8533 24.7175C15.6245 24.7175 15.4115 24.5728 15.335 24.344C15.2395 24.0578 15.394 23.7482 15.6802 23.6532L18.0371 22.8673V20.7419L16.0253 21.4125C15.9679 21.4317 15.9095 21.4409 15.8527 21.4409C15.6239 21.4409 15.4109 21.2962 15.3345 21.0674C15.2389 20.7813 15.3935 20.4716 15.6796 20.3766L18.0366 19.5908V17.4654L16.0247 18.136C15.969 18.1567 15.9106 18.1655 15.8533 18.1655Z" />
    </symbol>
    <symbol viewBox="0 0 18 15" id="twitter" xmlns="http://www.w3.org/2000/svg">
        <path
            d="M5.41233 14.5C11.9144 14.5 15.4713 9.11244 15.4713 4.44854C15.4713 4.29777 15.4713 4.14486 15.4649 3.9941C16.1574 3.4928 16.755 2.87217 17.2299 2.16127C16.583 2.44648 15.8975 2.63445 15.1957 2.71909C15.935 2.27718 16.4887 1.58189 16.7539 0.762425C16.0593 1.17392 15.299 1.46279 14.5065 1.61638C13.9736 1.0489 13.2685 0.672956 12.5003 0.54679C11.7322 0.420625 10.9439 0.551275 10.2575 0.918503C9.57113 1.28573 9.025 1.86904 8.70371 2.57809C8.38242 3.28713 8.3039 4.08233 8.48032 4.84052C7.07473 4.77004 5.69965 4.40489 4.44427 3.76876C3.18889 3.13263 2.08124 2.23972 1.19317 1.14794C0.742327 1.92661 0.604739 2.84767 0.808345 3.72409C1.01195 4.60052 1.54148 5.3666 2.28942 5.86677C1.72895 5.84773 1.18081 5.69723 0.689194 5.42741V5.47587C0.69016 6.29157 0.972741 7.08193 1.48917 7.71333C2.0056 8.34474 2.7242 8.77848 3.5235 8.94122C3.22011 9.0248 2.90671 9.06647 2.59202 9.06506C2.37016 9.06573 2.14876 9.04518 1.93082 9.00368C2.15673 9.70586 2.59662 10.3198 3.18886 10.7595C3.78111 11.1992 4.49606 11.4426 5.23357 11.4557C3.98069 12.4397 2.43307 12.9734 0.839955 12.9709C0.559239 12.972 0.278718 12.9559 0 12.9224C1.61693 13.9532 3.49475 14.5006 5.41233 14.5Z" />
    </symbol>
    <symbol viewBox="0 0 14 15" id="watsapp" xmlns="http://www.w3.org/2000/svg">
        <path
            d="M7.00001 0.5C10.8661 0.5 14 3.6339 14 7.5C14 11.3661 10.8661 14.5 7.00001 14.5C5.76295 14.502 4.54767 14.1746 3.47901 13.5515L0.00280985 14.5L0.949209 11.0224C0.325575 9.95341 -0.00205686 8.73759 9.71617e-06 7.5C9.71617e-06 3.6339 3.13391 0.5 7.00001 0.5ZM4.61441 4.21L4.47441 4.2156C4.38377 4.22112 4.29519 4.24493 4.21401 4.2856C4.13807 4.3286 4.06875 4.38235 4.00821 4.4452C3.92421 4.5243 3.87661 4.5929 3.82551 4.6594C3.56659 4.99603 3.42719 5.40932 3.42931 5.834C3.43071 6.177 3.52031 6.5109 3.66031 6.8231C3.94661 7.45449 4.41771 8.12299 5.03931 8.74249C5.18911 8.89159 5.33611 9.04139 5.49431 9.18069C6.26668 9.86072 7.18708 10.3511 8.1823 10.6129L8.5799 10.6738C8.7094 10.6808 8.8389 10.671 8.9691 10.6647C9.17297 10.6542 9.37203 10.599 9.5522 10.503C9.64387 10.4558 9.73333 10.4044 9.8203 10.349C9.8203 10.349 9.8504 10.3294 9.9078 10.286C10.0023 10.216 10.0604 10.1663 10.1388 10.0844C10.1969 10.0242 10.2473 9.95349 10.2858 9.87299C10.3404 9.75889 10.395 9.54119 10.4174 9.35989C10.4342 9.22129 10.4293 9.14569 10.4272 9.09879C10.4244 9.02389 10.3621 8.94619 10.2942 8.91329L9.8868 8.73059C9.8868 8.73059 9.2778 8.46529 8.9054 8.29589C8.86644 8.27888 8.82468 8.26915 8.7822 8.26719C8.73431 8.26228 8.68592 8.26766 8.64028 8.283C8.59464 8.29833 8.55281 8.32326 8.5176 8.35609C8.5141 8.35469 8.4672 8.39459 7.9611 9.00779C7.93206 9.04683 7.89204 9.07633 7.84617 9.09253C7.80029 9.10874 7.75062 9.11092 7.7035 9.09879C7.6579 9.08657 7.61323 9.07113 7.5698 9.05259C7.483 9.01619 7.4529 9.00219 7.3934 8.97699C6.99165 8.80168 6.61969 8.5648 6.29091 8.27489C6.20271 8.1979 6.12081 8.11389 6.03681 8.03269C5.76142 7.76896 5.52141 7.4706 5.32281 7.1451L5.28151 7.0786C5.25184 7.03391 5.22786 6.98571 5.21011 6.9351C5.18351 6.8322 5.25281 6.7496 5.25281 6.7496C5.25281 6.7496 5.42291 6.5634 5.50201 6.4626C5.57901 6.3646 5.64411 6.2694 5.68611 6.2015C5.76871 6.0685 5.79461 5.932 5.75121 5.8263C5.55521 5.3475 5.35221 4.8708 5.14361 4.3976C5.10231 4.3038 4.97981 4.2366 4.86851 4.2233C4.83071 4.2191 4.79291 4.2149 4.75511 4.2121C4.6611 4.20743 4.5669 4.20836 4.47301 4.2149L4.61371 4.2093L4.61441 4.21Z" />
    </symbol>
</svg>