<svg width="32" height="32" viewBox="0 0 32 32" fill="none" xmlns="http://www.w3.org/2000/svg">
<path fill-rule="evenodd" clip-rule="evenodd" d="M29.5628 2.87271C25.3951 -1.96263 19.6064 0.589602 16.9636 2.17496L21.9022 6.45499C22.273 6.77631 22.313 7.33739 21.9917 7.70809C21.6704 8.07889 21.1093 8.11896 20.7386 7.79764L14.076 2.02336C14.0377 1.99022 14.003 1.95452 13.9718 1.91675C9.21805 -1.32192 5.02459 -0.313609 1.58437 3.86572C-1.49631 7.60824 0.604078 14.3544 2.11399 19.2039C2.474 20.3602 2.80045 21.4087 3.01509 22.2829C4.12994 26.8237 5.19649 29.6532 7.62852 31.701C8.83295 32.715 10.1986 30.9724 11.6394 29.1338C12.8887 27.5398 14.1944 25.8737 15.5005 25.8697C16.7852 25.8658 18.0702 27.5293 19.3021 29.1239C20.724 30.9645 22.0751 32.7135 23.2732 31.701C25.2468 30.033 26.076 28.837 27.1888 25.1141C26.2081 25.5434 25.1246 25.7816 23.9854 25.7816C19.5698 25.7816 15.9903 22.2021 15.9903 17.7865C15.9903 13.3709 19.5698 9.79136 23.9854 9.79136C27.042 9.79136 29.698 11.5066 31.0433 14.0269L31.205 13.5635C32.3247 10.0063 32.5807 6.37397 29.5628 2.87271Z" fill="white"/>
<path fill-rule="evenodd" clip-rule="evenodd" d="M23.9851 24.0048C27.4195 24.0048 30.2036 21.2207 30.2036 17.7864C30.2036 14.352 27.4195 11.5679 23.9851 11.5679C20.5508 11.5679 17.7667 14.352 17.7667 17.7864C17.7667 21.2207 20.5508 24.0048 23.9851 24.0048ZM23.9854 25.7816C28.4011 25.7816 31.9803 22.202 31.9803 17.7864C31.9803 13.3708 28.4011 9.79136 23.9854 9.79136C19.5698 9.79136 15.9903 13.3709 15.9903 17.7865C15.9903 22.2021 19.5698 25.7816 23.9854 25.7816Z" fill="white"/>
<path d="M23.0969 14.2327C23.0969 13.7421 23.4946 13.3444 23.9852 13.3444C24.4759 13.3444 24.8736 13.7421 24.8736 14.2327V21.3395C24.8736 21.8302 24.4759 22.2279 23.9852 22.2279C23.4946 22.2279 23.0969 21.8302 23.0969 21.3395V14.2327Z" fill="white"/>
<path d="M20.4321 18.6748C19.9415 18.6748 19.5438 18.2771 19.5438 17.7865C19.5438 17.2958 19.9415 16.8981 20.4321 16.8981H27.5389C28.0295 16.8981 28.4272 17.2958 28.4272 17.7865C28.4272 18.2771 28.0295 18.6748 27.5389 18.6748H20.4321Z" fill="white"/>
</svg>
